<?xml version="1.0" encoding="UTF-8"?>
<svg id="a" data-name="Layer 2" xmlns="http://www.w3.org/2000/svg" viewBox="0 0 24 24">
  <path d="m20,24H4c-2.21,0-4-1.79-4-4V4C0,1.79,1.79,0,4,0h16c2.21,0,4,1.79,4,4v16c0,2.21-1.79,4-4,4Zm2.47-6.53c.02-.07.02-.15.03-.22-.02-.39-.25-.73-.6-.91l-4.59-1.97c-.12-.05-.26-.08-.39-.08-.29.02-.56.15-.76.36l-2.04,2.49c-3.19-1.51-5.76-4.08-7.27-7.27l2.49-2.03c.22-.2.35-.47.36-.76,0-.13-.03-.26-.08-.39l-1.97-4.59c-.17-.35-.52-.58-.91-.6-.07,0-.15.01-.22.03l-4.26.98c-.44.12-.75.51-.76.96h0c0,10.51,8.52,19.04,19.03,19.03.46,0,.86-.32.96-.76l.98-4.27h0Z" fill="#231f20"/>
</svg>