<?xml version="1.0" encoding="UTF-8"?>
<svg id="a" data-name="Layer 5" xmlns="http://www.w3.org/2000/svg" viewBox="0 0 24 24">
  <path d="m20,24H4C1.79,24,0,22.21,0,20V4C0,1.79,1.79,0,4,0h16C22.21,0,24,1.79,24,4v16c0,2.21-1.79,4-4,4Zm-4.46-13.66c1.59-.04,3.83-1.2,4.75-2.12,1.24-1.24,1.26-3.23.05-4.44-1.21-1.21-3.2-1.19-4.44.05-.92.92-2.08,3.16-2.12,4.75L3.24,19.14l1.75,1.75,10.55-10.55Zm-4.48-.46L4.3,3.12c-1.57,1.57,1.93,6.98,4.24,9.29l2.53-2.53Zm1.87,4.5l6.28,6.28,1.32-1.32-6.28-6.28-1.32,1.32Z" fill="#231f20"/>
</svg>