<?xml version="1.0" encoding="UTF-8"?>
<svg id="a" data-name="Layer 32" xmlns="http://www.w3.org/2000/svg" viewBox="0 0 35.48 24.26">
  <path d="m32.98,1c.55,0,1,.45,1,1v20c0,.55-.45,1-1,1H12.98c-.55,0-1-.45-1-1V2c0-.55.45-1,1-1h20M32.98,0H12.98C11.88,0,10.98.9,10.98,2v20c0,1.1.9,2,2,2h20c1.1,0,2-.9,2-2V2C34.98.9,34.09,0,32.98,0h0Z" fill="#ffffff"/>
  <polygon points="18.93 11.37 13.98 18.99 13.98 21.98 31.98 21.98 31.98 18.98 25.59 9.86 21.54 16.09 18.93 11.37" fill="#ffffff"/>
  <circle cx="16.89" cy="6.17" r="2.06" fill="#ffffff"/>
</svg>