<?xml version="1.0" encoding="UTF-8"?>
<svg id="a" data-name="Layer 1" xmlns="http://www.w3.org/2000/svg" xmlns:xlink="http://www.w3.org/1999/xlink" viewBox="0 0 299.81 165.68">
  <defs>
    <linearGradient id="b" x1="143.34" y1="18.21" x2="143.34" y2="36.6" gradientUnits="userSpaceOnUse">
      <stop offset="0" stop-color="#44a152"/>
      <stop offset="1" stop-color="#34783e"/>
    </linearGradient>
    <linearGradient id="c" x1="130.2" y1="56.77" x2="130.2" y2="69.81" xlink:href="#b"/>
    <linearGradient id="d" x1="121.17" y1="41.11" x2="121.17" y2="55.52" xlink:href="#b"/>
    <linearGradient id="e" x1="129.03" y1="30.25" x2="129.03" y2="43.63" xlink:href="#b"/>
    <linearGradient id="f" x1="161.11" y1="26.54" x2="161.11" y2="44.04" xlink:href="#b"/>
    <linearGradient id="g" x1="176.36" y1="36.36" x2="176.36" y2="49.68" xlink:href="#b"/>
    <linearGradient id="h" x1="170.06" y1="53.53" x2="170.06" y2="66.18" xlink:href="#b"/>
    <linearGradient id="i" data-name="g-lg" x1="143.35" y1="20.14" x2="143.35" y2="36.09" gradientUnits="userSpaceOnUse">
      <stop offset="0" stop-color="#d0e4b4"/>
      <stop offset="1" stop-color="#89bd42"/>
    </linearGradient>
    <linearGradient id="j" data-name="g-lg" x1="131.01" y1="58.67" x2="131.01" y2="67.46" xlink:href="#i"/>
    <linearGradient id="k" data-name="g-lg" x1="122.67" y1="42.83" x2="122.67" y2="53.31" xlink:href="#i"/>
    <linearGradient id="l" data-name="g-lg" x1="130.52" y1="31.78" x2="130.52" y2="42.62" xlink:href="#i"/>
    <linearGradient id="m" data-name="g-lg" x1="161.16" y1="27.41" x2="161.16" y2="43.32" xlink:href="#i"/>
    <linearGradient id="n" data-name="g-lg" x1="175.31" y1="38.12" x2="175.31" y2="47.81" xlink:href="#i"/>
    <linearGradient id="o" data-name="g-lg" x1="169.32" y1="54.99" x2="169.32" y2="63.6" xlink:href="#i"/>
    <linearGradient id="p" data-name="g-lg" x1="184.69" y1="49.11" x2="184.69" y2="59.15" xlink:href="#i"/>
    <linearGradient id="q" data-name="g-lg" x1="108.71" y1="44.08" x2="108.71" y2="52.45" xlink:href="#i"/>
    <linearGradient id="r" data-name="g-lg" x1="114.07" y1="52.31" x2="114.07" y2="62.1" xlink:href="#i"/>
    <linearGradient id="s" data-name="g-lg" x1="111.16" y1="29.43" x2="111.16" y2="40.45" xlink:href="#i"/>
    <linearGradient id="t" data-name="g-lg" x1="115.38" y1="19.02" x2="115.38" y2="29.87" xlink:href="#i"/>
    <linearGradient id="u" data-name="g-lg" x1="127.07" y1="14.98" x2="127.07" y2="29.92" xlink:href="#i"/>
    <linearGradient id="v" data-name="g-lg" x1="131.13" y1="2.98" x2="131.13" y2="16.79" xlink:href="#i"/>
    <linearGradient id="w" data-name="g-lg" x1="142.56" y1="2.69" x2="142.56" y2="20.08" xlink:href="#i"/>
    <linearGradient id="x" data-name="g-lg" x1="150.63" y1="0" x2="150.63" y2="11.7" xlink:href="#i"/>
    <linearGradient id="y" data-name="g-lg" x1="161.17" y1=".79" x2="161.17" y2="11.58" xlink:href="#i"/>
    <linearGradient id="z" data-name="g-lg" x1="155.05" y1="10.05" x2="155.05" y2="26.8" xlink:href="#i"/>
    <linearGradient id="aa" data-name="g-lg" x1="167.51" y1="8.46" x2="167.51" y2="25.71" xlink:href="#i"/>
    <linearGradient id="ab" data-name="g-lg" x1="178.68" y1="12.91" x2="178.68" y2="22.65" xlink:href="#i"/>
    <linearGradient id="ac" data-name="g-lg" x1="179.87" y1="23.06" x2="179.87" y2="35.85" xlink:href="#i"/>
    <linearGradient id="ad" data-name="g-lg" x1="189.93" y1="30.1" x2="189.93" y2="39.36" xlink:href="#i"/>
    <linearGradient id="ae" data-name="g-lg" x1="190.28" y1="41.37" x2="190.28" y2="50.7" xlink:href="#i"/>
    <linearGradient id="af" x1="184.72" y1="49.11" x2="184.72" y2="59.29" xlink:href="#b"/>
    <linearGradient id="ag" x1="108.71" y1="44.09" x2="108.71" y2="52.55" xlink:href="#b"/>
    <linearGradient id="ah" x1="114.07" y1="52.33" x2="114.07" y2="62.2" xlink:href="#b"/>
    <linearGradient id="ai" x1="111.16" y1="29.46" x2="111.16" y2="40.51" xlink:href="#b"/>
    <linearGradient id="aj" x1="115.38" y1="19.05" x2="115.38" y2="29.87" xlink:href="#b"/>
    <linearGradient id="ak" x1="127.08" y1="14.98" x2="127.08" y2="29.87" xlink:href="#b"/>
    <linearGradient id="al" x1="131.13" y1="2.98" x2="131.13" y2="16.73" xlink:href="#b"/>
    <linearGradient id="am" x1="142.56" y1="2.69" x2="142.56" y2="20" xlink:href="#b"/>
    <linearGradient id="an" x1="150.69" y1="0" x2="150.69" y2="11.68" xlink:href="#b"/>
    <linearGradient id="ao" x1="161.16" y1=".79" x2="161.16" y2="11.53" xlink:href="#b"/>
    <linearGradient id="ap" x1="155.13" y1="10.05" x2="155.13" y2="26.77" xlink:href="#b"/>
    <linearGradient id="aq" x1="167.56" y1="8.46" x2="167.56" y2="25.63" xlink:href="#b"/>
    <linearGradient id="ar" x1="178.67" y1="12.91" x2="178.67" y2="22.62" xlink:href="#b"/>
    <linearGradient id="as" x1="179.87" y1="23.09" x2="179.87" y2="35.92" xlink:href="#b"/>
    <linearGradient id="at" x1="189.93" y1="30.12" x2="189.93" y2="39.45" xlink:href="#b"/>
    <linearGradient id="au" x1="190.31" y1="41.36" x2="190.31" y2="50.7" xlink:href="#b"/>
  </defs>
  <text transform="translate(0 130.11)" fill="#34783e" font-family="MyriadConceptRoman-Bold, &apos;Myriad Variable Concept&apos;" font-size="25.05" font-variation-settings="&apos;wght&apos; 700, &apos;wdth&apos; 100" font-weight="700"><tspan x="0" y="0" letter-spacing="0em">M</tspan><tspan x="21.26" y="0">c</tspan><tspan x="32.56" y="0" letter-spacing="-.02em">C</tspan><tspan x="46.99" y="0">o</tspan><tspan x="61.44" y="0" letter-spacing="0em">r</tspan><tspan x="70.9" y="0">mick </tspan><tspan x="129.23" y="0" letter-spacing="-.04em">F</tspan><tspan x="141.46" y="0">ami</tspan><tspan x="183.08" y="0" letter-spacing="0em">l</tspan><tspan x="189.99" y="0">y </tspan><tspan x="208.15" y="0" letter-spacing="0em">R</tspan><tspan x="223.05" y="0">eunion</tspan></text>
  <text transform="translate(74.61 159.42)" fill="#34783e" font-family="MyriadConceptRoman-Regular, &apos;Myriad Variable Concept&apos;" font-size="25.05" font-variation-settings="&apos;wght&apos; 400, &apos;wdth&apos; 100"><tspan x="0" y="0" letter-spacing="0em">J</tspan><tspan x="9.29" y="0">une 24, 2023</tspan></text>
  <g>
    <g>
      <path d="m144.98,35.6s-9.22,6.1-9.05-11.82c.02-1.67-.07-3.46.13-5.57.08-.03,2.03,1.24,4.76,2.23,6.6,2.39,14.88,8.09,6.12,14.91l-1.96.25Z" fill="url(#b)"/>
      <path d="m138.47,63.02s.04-12.48-16.55-2.19c0,0,16.94,16.42,16.55,4.82v-2.64Z" fill="url(#c)"/>
      <path d="m129.81,50.35c-.71.16.39,13.64-14.13-3.6-1.07-1.27-2.22-2.44-3.97-3.97,0,0,1.67.15,3.71-.6,5.05-1.87,14.78-2.22,15.22,6.82l-.83,1.34Z" fill="url(#d)"/>
      <path d="m136.75,42.47s-7.72,5.54-13.5-7.67c-.59-1.34-1.67-2.02-3.56-3.17,0,0,18.94-6.95,18.69,10.29l-1.63.55Z" fill="url(#e)"/>
      <path d="m156.31,42.18s-8.45-6.09,1.89-13.77c2.58-1.92,6.65-2.06,10.98-1.76,0,0-.96.81-1.03,4.07-.13,6.69-1.96,16.62-10.39,12.22l-1.45-.77Z" fill="url(#f)"/>
      <path d="m167.24,44.33s-2.78-15.02,18.36-3.82c0,0-2.02.32-3.09,2.54-2.53,5.26-8.06,10.31-14.71,2.91l-.56-1.62Z" fill="url(#g)"/>
      <path d="m161,57.71s6.08-12.43,18.3,5.58c0,0-3.29-.46-6.63.89-5.55,2.25-13.07,4.46-11.67-4.52v-1.95Z" fill="url(#h)"/>
    </g>
    <g>
      <path d="m144.98,35.6s-7.89,4.78-7.8-15.46c0,0,19.09,6.8,9.77,15.21l-1.96.25Z" fill="url(#i)"/>
      <path d="m138.47,63.53s-1.34-9.03-14.91-2.47c0,0,2.92,1.42,6.04,3.29,3.9,2.34,8.23,4.94,8.88,1.31v-2.13Z" fill="url(#j)"/>
      <path d="m130.63,49.01s-.66-8.82-15.92-5.38c0,0,12.87,16.18,15.1,6.72l.83-1.34Z" fill="url(#k)"/>
      <path d="m136.75,42.47s-2.68.74-6.11-1.09c-1.51-.8-2.36-3.21-4-5.29-1.07-1.36-2.14-2.83-3.96-4.03,0,0,13.12-2.92,15.7,9.86l-1.63.55Z" fill="url(#l)"/>
      <path d="m156.31,42.18s-8.75-11.45,11.58-14.78c0,0-1.28,1.57-1.46,3.88-.74,9.48-2.72,13.31-8.67,11.66l-1.45-.77Z" fill="url(#m)"/>
      <path d="m167.24,44.33s-1.41-10.9,16.17-3.82c0,0-1.46,1.18-3.09,3.12-2.92,3.46-7.28,6.13-12.52,2.33" fill="url(#n)"/>
      <path d="m161,57.71s6.2-8.49,16.67,4.54c0,0-3.88-.7-6.86,0-4.98,1.17-10.09,3.29-9.81-2.59v-1.95Z" fill="url(#o)"/>
    </g>
    <g>
      <path d="m177.66,52.22s4.85-9.69,14.75,5.15c0,0-2.4.26-5.03.86-5.16,1.19-12.13,2.33-10.03-4.19.21-.65,1.19-1.03,2.16-1.04" fill="url(#p)"/>
      <path d="m114.52,47.51s-1.47-8.47-11.61,1.22c0,0,1.66.66,3.42,1.63,3.45,1.9,8.19,4.11,8.04-1.37-.02-.54-.64-1.02-1.33-1.22" fill="url(#q)"/>
      <path d="m121.62,56.67s-1.81-9.91-15.12.16c0,0,2.15.93,4.43,2.24,4.46,2.56,10.61,5.61,10.47-.72-.01-.63-.82-1.25-1.71-1.55" fill="url(#r)"/>
      <path d="m118.81,35.3s.77-10.81-15.31-3.09c0,0,1.93,1.45,3.88,3.31,3.83,3.65,9.25,8.19,10.77,1.51.15-.66-.5-1.49-1.32-1.99" fill="url(#s)"/>
      <path d="m122.63,25.94s1.46-9.64-14.54-6.16c0,0,1.76,1.73,3.52,3.85,3.45,4.15,8.36,9.45,10.27,3.73.19-.57-.38-1.46-1.14-2.1" fill="url(#t)"/>
      <path d="m134.41,26.32s4.13-10.6-15.04-11.34c0,0,1.57,2.51,3.04,5.45,2.88,5.77,7.14,13.28,10.78,7.29.36-.59-.06-1.78-.77-2.74" fill="url(#u)"/>
      <path d="m135.68,14.52s5.68-7.86-10.11-11.54c0,0,.78,2.27,1.37,4.87,1.17,5.11,3.12,11.83,7.42,7.6.43-.42.32-1.44-.06-2.33" fill="url(#v)"/>
      <path d="m145.57,18.52s8.46-7.28-8.17-15.83c0,0,.26,2.77.22,5.87-.07,6.08.29,14.21,6.24,10.64.59-.36.75-1.54.56-2.64" fill="url(#w)"/>
      <path d="m149.34,11.41s-7.98-3.05,3.23-11.41c0,0,.35,1.79.98,3.73,1.24,3.81,2.56,8.97-2.74,7.8-.53-.12-.88-.83-.95-1.56" fill="url(#x)"/>
      <path d="m158.66,10.2s-6.8-5.38,6.73-9.4c0,0-.23,1.75-.22,3.73.01,3.89-.34,9.05-5.12,6.26-.48-.28-.6-1.05-.44-1.74" fill="url(#y)"/>
      <path d="m153.29,26.32s-10.75-4.54,4.48-16.26c0,0,.45,2.57,1.29,5.36,1.64,5.48,3.36,12.91-3.79,11.11-.71-.18-1.19-1.21-1.27-2.25" fill="url(#z)"/>
      <path d="m164.57,24.2s-10.07-7.14,8.35-15.74c0,0-.12,2.75.1,5.82.44,6.02.52,14.08-6.46,10.58-.69-.35-.95-1.52-.8-2.61" fill="url(#aa)"/>
      <path d="m174.87,20.35s-5.61-6.82,8.7-7.44c0,0-.6,1.63-1.02,3.54-.82,3.75-2.27,8.64-6.43,4.79-.41-.38-.37-1.15-.06-1.78" fill="url(#ab)"/>
      <path d="m170.74,29.9s-.51-12.53,18.27-3.69c0,0-2.34,1.69-4.73,3.86-4.68,4.26-11.27,9.56-12.82,1.82-.15-.77.65-1.73,1.64-2.32" fill="url(#ac)"/>
      <path d="m182.79,34.49s1.2-9.33,14.28-.78c0,0-1.99,1-4.06,2.35-4.08,2.65-9.73,5.87-9.92-.02-.02-.59.71-1.21,1.54-1.54" fill="url(#ad)"/>
      <path d="m184.96,43s6.44-6.91,12.19,7.7c0,0-2.22-.34-4.71-.45-4.9-.21-11.42-.89-8.14-5.81.33-.49,1.29-.57,2.16-.36" fill="url(#ae)"/>
    </g>
    <g>
      <path d="m177.66,52.22s4.72-9.69,14.75,5.15c0,0-2.75.3-5.72,1.03-4.5,1.11-10.72,2.32-9.52-3.92,0,0,.62-3.67,9.26.52,0,0-6.49-1.25-7.29-.37-.96,1.06-1.58,5.56,11.13,1.89,0,0-7.25-10.21-12.61-4.29Z" fill="url(#af)"/>
      <path d="m114.52,47.51s-1.38-8.45-11.61,1.22c0,0,1.91.75,3.88,1.89,2.99,1.71,7.19,3.83,7.62-1.26,0,0,.31-2.98-6.73-1.35,0,0,4.9.26,5.29,1.09.47,1.01-.01,4.63-8.35-.63,0,0,7.29-6.59,9.9-.96Z" fill="url(#ag)"/>
      <path d="m121.62,56.67s-1.69-9.87-15.12.16c0,0,2.47,1.07,5.03,2.58,3.87,2.29,9.31,5.18,9.92-.63,0,0,.44-3.39-8.74-2.27,0,0,6.37.82,6.87,1.82.6,1.21-.07,5.33-10.85-1.62,0,0,9.56-6.8,12.89-.04Z" fill="url(#ah)"/>
      <path d="m118.81,35.3s.88-10.74-15.31-3.09c0,0,2.21,1.66,4.4,3.8,3.31,3.25,8.04,7.46,10.19,1.48,0,0,1.33-3.47-8.23-4.27,0,0,6.22,2.24,6.46,3.4.29,1.4-1.47,5.59-10.54-4.05,0,0,11.44-5.09,13.03,2.74Z" fill="url(#ai)"/>
      <path d="m122.63,25.94s1.56-9.55-14.54-6.16c0,0,2.02,1.99,3.99,4.41,2.97,3.67,7.25,8.53,9.72,3.57,0,0,1.52-2.86-7.65-5.68,0,0,5.84,3.39,6,4.5.18,1.33-1.79,4.75-9.88-5.98,0,0,11.35-2.11,12.37,5.34Z" fill="url(#aj)"/>
      <path d="m134.41,26.32s4.23-10.47-15.04-11.34c0,0,1.8,2.87,3.43,6.23,2.46,5.08,6.11,11.9,10.19,6.95,0,0,2.46-2.82-7.29-8.76,0,0,5.81,5.61,5.7,6.92-.13,1.58-3.25,4.91-9.76-9.76,0,0,13.51.94,12.77,9.76Z" fill="url(#ak)"/>
      <path d="m135.68,14.52s5.74-7.74-10.11-11.54c0,0,.89,2.6,1.53,5.56.97,4.48,2.56,10.55,7,7.24,0,0,2.65-1.87-4.2-8.22,0,0,3.64,5.45,3.28,6.48-.44,1.25-3.75,3.42-6.05-9.42,0,0,11.04,2.93,8.55,9.91Z" fill="url(#al)"/>
      <path d="m145.57,18.52s8.49-7.13-8.17-15.83c0,0,.29,3.18.21,6.7-.13,5.32,0,12.61,5.86,10.1,0,0,3.46-1.38-2.48-10.43,0,0,2.6,7.15,1.91,8.22-.83,1.29-5.11,2.82-4.21-12.31,0,0,11.54,6.37,6.88,13.55Z" fill="url(#am)"/>
      <path d="m149.34,11.41s-7.97-2.95,3.23-11.41c0,0,.4,2.05,1.15,4.24,1.14,3.32,2.46,7.92-2.56,7.4,0,0-2.95-.24-.13-6.99,0,0-.61,4.96.13,5.5.9.66,4.5.85.85-8.48,0,0-7.68,6.08-2.67,9.74Z" fill="url(#an)"/>
      <path d="m158.66,10.2s-6.82-5.29,6.73-9.4c0,0-.26,2.01-.22,4.26.07,3.41-.1,8.05-4.82,5.95,0,0-2.79-1.18,2.08-6.45,0,0-2.16,4.35-1.61,5.08.66.89,4.11,2.24,3.5-7.5,0,0-9.38,3.07-5.66,8.06Z" fill="url(#ao)"/>
      <path d="m153.29,26.32s-10.74-4.4,4.48-16.26c0,0,.52,2.94,1.51,6.1,1.51,4.77,3.25,11.39-3.54,10.54,0,0-3.98-.41-.1-10.02,0,0-.88,7.09.12,7.88,1.21.96,6.08,1.31,1.24-12.13,0,0-10.45,8.53-3.71,13.89Z" fill="url(#ap)"/>
      <path d="m164.57,24.2s-10.09-6.99,8.35-15.74c0,0-.14,3.15.17,6.63.47,5.27.75,12.49-6.06,10.05,0,0-4.02-1.34,2.19-10.35,0,0-2.53,7.11-1.68,8.15,1.02,1.27,5.98,2.75,4.05-12.22,0,0-12.74,6.4-7.01,13.47Z" fill="url(#aq)"/>
      <path d="m174.87,20.35s-5.66-6.74,8.7-7.44c0,0-.69,1.87-1.12,4.05-.66,3.3-1.82,7.74-6.06,4.57,0,0-2.52-1.81,3.45-5.71,0,0-3.07,3.67-2.68,4.51.47,1.02,3.61,3.15,5.08-6.38,0,0-9.99.7-7.35,6.4Z" fill="url(#ar)"/>
      <path d="m170.74,29.9s-.64-12.46,18.27-3.69c0,0-2.69,1.94-5.36,4.44-4.04,3.79-9.81,8.7-12.13,1.78,0,0-1.45-4.02,9.92-5.01,0,0-7.46,2.64-7.78,3.98-.4,1.63,1.53,6.47,12.64-4.77,0,0-13.36-5.83-15.55,3.26Z" fill="url(#as)"/>
      <path d="m182.79,34.49s1.09-9.29,14.28-.78c0,0-2.28,1.15-4.61,2.71-3.54,2.37-8.52,5.39-9.4.02,0,0-.59-3.13,8.13-2.65,0,0-5.97,1.15-6.39,2.12-.5,1.16.34,4.95,10.16-2.18,0,0-9.37-5.74-12.17.75Z" fill="url(#at)"/>
      <path d="m184.96,43s6.32-6.94,12.19,7.7c0,0-2.54-.39-5.38-.48-4.29-.13-10.15-.57-7.73-5.47,0,0,1.34-2.9,8.23,2.59,0,0-5.58-2.54-6.49-2-1.09.65-2.62,4.24,9.62,4.15,0,0-4.34-10.15-10.44-6.49Z" fill="url(#au)"/>
    </g>
    <path d="m179.51,52.99s-2.17-.23-1.85-.78" fill="#b5d588"/>
    <g>
      <path d="m150.86,77.86c-3.12-10.12,6.2-37.28,12.08-44.09-3.72,1.29-15.9,26.68-15.08,32.26-1.45-8.8-6.65-27.9-19.51-31.05,17.95,9.33,20.5,43.61,10.49,63.81,3.64.3,6.67,1.65,8.17-3.28.51,2.72,1.11,5.32,5.79,4.63v-2.83l1.42.84h4.12c-.48.36-5.58-9.59-7.46-20.28Z" fill="#34783e"/>
      <path d="m152.02,65.85s3.69-14.07,21.78-5.23c0,0-14.67-5.57-21.78,5.23Z" fill="#34783e"/>
      <path d="m153.48,57.71s3.6-14.15,24.87-15.78c0,0-15.44,2.66-24.87,15.78Z" fill="#34783e"/>
      <path d="m140.01,25.29s7.8,6.52,7.8,33.79c0,0,5.83-22.21-7.8-33.79Z" fill="#34783e"/>
      <path d="m142.76,62.25s-1.29-12.01-21.53-16.3c0,0,15.1,5.92,21.53,16.3Z" fill="#34783e"/>
      <path d="m143.69,69.54s-1.62-7.89-13.88-7.76c0,0,9.07,2.7,13.88,7.76Z" fill="#34783e"/>
    </g>
  </g>
</svg>